<?xml version="1.0" encoding="UTF-8"?>
<!DOCTYPE svg PUBLIC "-//W3C//DTD SVG 1.1//EN" "http://www.w3.org/Graphics/SVG/1.1/DTD/svg11.dtd">
<!-- Creator: CorelDRAW -->
<svg xmlns="http://www.w3.org/2000/svg" xml:space="preserve" width="130px" height="50px" style="shape-rendering:geometricPrecision; text-rendering:geometricPrecision; image-rendering:optimizeQuality; fill-rule:evenodd; clip-rule:evenodd"
viewBox="0 0 130 49.9987"
 xmlns:xlink="http://www.w3.org/1999/xlink">
 <defs>
  <style type="text/css">
   <![CDATA[
    .str0 {stroke:#0088EE;stroke-width:0.590555}
    .fil0 {fill:none}
    .fil1 {fill:#0088EE;fill-rule:nonzero}
   ]]>
  </style>
 </defs>
 <g id="图层_x0020_1">
  <metadata id="CorelCorpID_0Corel-Layer"/>
  <rect class="fil0" y="-0.0702757" width="130.001" height="49.9999"/>
  <path class="fil1 str0" d="M5.2772 7.45989c5.08822,-1.09489 9.92486,-0.498428 14.5182,1.79529l0.284647 0.66024c0.140552,0.442916 0.0980321,1.15158 -0.118111,2.126l-0.327167 1.98072 -0.368506 0.563389c-0.627169,0.128741 -1.22599,0.312994 -1.79647,0.56457 -0.401577,0.474806 -0.66024,0.900005 -0.771265,1.27914 -0.112205,0.344884 -0.173623,0.909454 -0.20197,1.69844 0.514964,2.60907 1.18229,5.2335 1.99726,7.87446 0.570476,2.04568 1.31457,4.09018 2.24056,6.13468 0.654335,1.50473 0.995675,1.57088 1.02284,0.186615 0.105119,-3.10868 0.529137,-6.11224 1.26024,-9.01068l1.09961 -3.77601c0.0271655,-0.909454 -0.160631,-1.77166 -0.571657,-2.59135l-1.42678 -1.37009c-0.158269,-0.377955 -0.173623,-0.845674 -0.0342522,-1.41615 0.216143,-1.40906 0.473625,-2.32797 0.772446,-2.72954 0.514964,-0.347246 1.45513,0.120473 2.81222,1.40906 1.57914,1.19883 3.15238,2.70474 4.73152,4.53192 1.00158,0.757091 1.19765,1.6193 0.570476,2.59372 -0.243309,1.0382 -0.6815,1.27087 -1.30867,0.708666 -1.08426,-0.249214 -1.57088,0.804336 -1.46694,3.16301 -0.188978,3.17246 -0.160631,5.56421 0.0826777,7.16579 0.139371,1.41733 0.439373,1.43387 0.897643,0.0496066 0.516145,-1.47521 1.14213,-2.82758 1.87915,-4.05829l0.571657 -0.943707c1.00158,-0.941344 1.23072,-1.8508 0.688587,-2.73663 -0.598823,-0.411026 -0.612996,-1.02284 -0.0425199,-1.83544 0.411026,-0.974415 0.820871,-0.95788 1.22481,0.0484255 1.05827,1.40906 1.92757,2.90671 2.61025,4.47641 -0.105119,0.563389 -0.369687,0.942525 -0.772446,1.13505 -0.842131,-1.0382 -1.60749,-1.02166 -2.2819,0.0496066 -0.870478,1.03701 -1.71261,2.46261 -2.53466,4.28979 -0.647248,1.73151 -1.15513,3.56695 -1.50355,5.51578 -0.193702,1.60985 -0.409845,2.48742 -0.653154,2.64923 -0.216143,0.0236222 -0.640161,-0.709847 -1.26615,-2.22285 -0.870478,-2.7697 -1.54607,-5.51578 -2.03978,-8.25241 -0.216143,-1.48111 -0.375593,-2.14135 -0.486617,-1.97954 -1.03701,3.83034 -1.26733,8.13784 -0.695674,12.9213 0.0826777,1.48111 0.0271655,2.34332 -0.160631,2.59254 -0.438192,0.442916 -0.898824,0.240946 -1.38544,-0.612996 -1.90631,-2.3256 -3.64609,-4.66893 -5.21932,-7.0276 -1.55198,-2.2949 -3.00592,-4.66893 -4.36302,-7.12563 -1.28032,-2.26182 -2.51931,-4.68546 -3.70868,-7.26146 -0.52205,-0.975596 -1.09371,-1.77993 -1.7197,-2.40828 -0.45827,-0.499609 -0.870478,-0.764178 -1.21772,-0.796068 -0.327167,-0.161812 -0.654335,-0.178348 -0.980321,-0.0484255l-1.18465 0.466538c-0.243309,0.03189 -0.583468,0 -1.01457,-0.0897643l-0.536224 -0.52205c-0.459452,-1.28859 -0.869297,-2.73781 -1.21891,-4.34058 -0.327167,-1.00512 -0.424018,-2.01261 -0.284647,-3.01892l0.527956 -1.08662c1.14213,-0.693311 2.42954,-1.14331 3.86931,-1.36891zm36.5376 15.3379c3.31892,-1.73151 6.74177,-1.61812 10.2792,0.330711 0.869297,0.499609 1.54371,1.14213 2.03741,1.9323 0.786619,1.07009 1.21772,2.60789 1.30276,4.6205 -0.24449,1.63466 -1.37245,2.39175 -3.3827,2.26301 -3.20907,-0.0248033 -5.70003,0.32953 -7.46697,1.08662 -0.133465,1.2319 0.806698,2.45553 2.81813,3.68034 1.76694,0.7878 3.34018,0.523232 4.72444,-0.797249 1.09371,-1.07127 1.82481,-1.49883 2.20749,-1.2815 0.325986,0.161812 -0.0141733,1.03938 -1.02284,2.64923 -1.19765,1.40906 -2.74254,2.18151 -4.64885,2.31143 -1.92875,0.377955 -3.82916,-0.0177166 -5.70712,-1.18465 -0.870478,-0.498428 -1.6571,-1.10316 -2.36576,-1.78702 -2.77088,-2.96222 -3.59766,-6.13468 -2.48505,-9.53273 0.271655,-0.853942 0.758272,-1.63347 1.46812,-2.35868 0.54331,-0.725201 1.28741,-1.36891 2.24175,-1.9323zm5.58783 2.63978c-2.55474,0.758272 -3.63309,2.24765 -3.22207,4.47641 1.43977,0.0342522 2.95041,-0.00708666 4.52365,-0.137009 1.65592,0 2.52521,-0.144095 2.60907,-0.425199 0.139371,-2.35868 -1.1693,-3.6638 -3.91065,-3.9142zm9.86817 -15.7076c0.271655,-0.225592 1.14213,-0.29764 2.60907,-0.242127 4.09963,0.161812 8.27485,0.491342 12.5139,0.990951l0.327167 0.427562c-2.20041,4.30751 -3.34018,8.55832 -3.42404,12.7359 3.17955,-1.35237 5.87366,-1.23898 8.0717,0.330711 1.52481,1.16694 2.39529,2.65632 2.61143,4.48585 0.29764,3.89648 -0.675595,7.10792 -2.93742,9.62014 -1.46221,1.32048 -3.05435,1.86025 -4.76696,1.60158 -0.382679,0.509058 -0.625988,1.07127 -0.738193,1.69962 -0.647248,0.853942 -1.53072,0.257482 -2.6445,-1.78702 -3.7512,-5.95161 -5.80397,-12.1737 -6.15831,-18.6875 0.0838588,-0.974415 0,-1.88387 -0.243309,-2.73781 -0.194883,-0.434648 -0.425199,-0.765359 -0.695674,-0.98977 -0.731107,-0.531499 -1.55198,-0.812603 -2.4508,-0.845674 -0.348427,0.064961 -0.716933,0.0803154 -1.09961,0.0484255 -0.300002,-0.0637799 -0.674414,-0.264569 -1.14095,-0.611815 -0.216143,-0.161812 -0.389766,-1.02284 -0.529137,-2.6008 0,-1.56969 0.0555121,-2.46261 0.160631,-2.68939l0.535043 -0.748823zm17.9836 16.6029c-1.87915,-1.12796 -3.7512,-0.56457 -5.63035,1.69844 -0.459452,0.973234 -0.355514,2.59254 0.327167,4.86263 0.186615,2.22993 1.01575,3.8327 2.48505,4.80593 1.57914,0.444097 2.85238,-0.152363 3.8327,-1.78584 0.655516,-1.51418 0.92599,-3.39805 0.814966,-5.66933 -0.103938,-1.88387 -0.716933,-3.18781 -1.82954,-3.91183zm12.6379 -4.1953c2.71419,-0.950793 5.44846,-0.725201 8.19099,0.66024 0.92599,0.434648 1.73977,1.02284 2.44962,1.74686 1.58032,1.7882 2.31143,3.37325 2.19923,4.75751 0.270474,3.27758 -0.647248,6.0709 -2.7697,8.39769 -0.981502,1.00749 -2.70828,1.77993 -5.17798,2.31143 -2.12245,0.096851 -4.05002,-0.330711 -5.7898,-1.27205 -0.598823,-0.346065 -1.22481,-0.75591 -1.87915,-1.22363 -2.85238,-2.73663 -4.09136,-5.7083 -3.70868,-8.92092 0.382679,-1.28859 0.953155,-2.41537 1.71143,-3.38978 0.598823,-0.757091 1.28032,-1.38426 2.0386,-1.89214 0.92599,-0.563389 1.83781,-0.956699 2.73545,-1.1752zm5.42129 3.43703c-2.88191,-0.434648 -4.7953,0.66024 -5.74846,3.30947 -0.298821,1.91694 0.146458,3.92837 1.34292,6.03901 0.466538,0.716933 1.12796,1.42442 1.99726,2.11773 0.598823,0.442916 1.2945,0.72402 2.08111,0.853942 2.12245,-0.0980321 3.42404,-0.959061 3.91774,-2.60198 0.271655,-1.60158 0.334254,-3.2197 0.20197,-4.85554 0.0555121,-2.67167 -1.21064,-4.28979 -3.79254,-4.86263zm23.0423 -7.9217c0.320081,-0.822052 0.813784,-1.30394 1.46103,-1.46576 2.39411,1.54607 4.71853,2.75435 6.97327,3.64018 0.194883,0.249214 -0.514964,1.30394 -2.11655,3.15474 -2.44844,3.58349 -3.7016,7.25437 -3.75002,10.9902 0,1.38662 0.145276,2.22285 0.445278,2.50395 0.486617,0.282285 0.765359,0.531499 0.813784,0.758272 0.0555121,0.465357 -0.716933,0.861029 -2.32324,1.17402 -0.160631,0.0661421 -0.431105,0.0496066 -0.813784,-0.0484255 -0.133465,-0.0885832 -0.501972,0.210237 -1.10079,0.902368 -2.3386,1.72442 -4.96302,2.02915 -7.86973,0.892919 -1.08662,-0.627169 -2.10946,-1.4315 -3.05553,-2.4071 -3.1323,-4.24136 -3.75238,-8.25241 -1.87915,-12.0284 0.438192,-0.75591 0.92599,-1.44922 1.46694,-2.07757 0.62835,-0.562208 1.23898,-1.05355 1.83781,-1.45749 1.4693,-0.69213 2.95159,-0.966148 4.43979,-0.804336 0.794887,0.064961 1.51064,0.249214 2.16497,0.56457 0.813784,0.249214 1.67009,0.81969 2.56773,1.69725 0.897643,0.910635 1.65592,0.509058 2.2819,-1.22245 0.598823,-1.13505 0.203151,-1.99608 -1.18229,-2.59254 -1.14095,-0.314175 -1.25906,-1.03938 -0.36142,-2.17442zm-3.75829 7.9217c-2.25474,-0.401577 -3.8138,0.646067 -4.6831,3.16537 -0.467719,2.42364 -0.251576,4.43625 0.647248,6.03901 0.466538,0.81969 1.00867,1.55316 1.63584,2.2134 1.49528,1.38426 2.98466,1.74686 4.47995,1.08662 0.814966,-0.499609 1.32284,-1.22363 1.51182,-2.16497l-0.203151 -7.5532c-0.625988,-1.50473 -1.75277,-2.43899 -3.3886,-2.78624z"/>
 </g>
</svg>
